<svg xmlns="http://www.w3.org/2000/svg" version="1.1" width="512" height="512" x="0" y="0" viewBox="0 0 512 512" style="enable-background:new 0 0 512 512" xml:space="preserve" class=""><g><g xmlns="http://www.w3.org/2000/svg"><g><g><g><g><g><g><g><g><path d="m255.999 445.531c-4.204 0-7.611-3.408-7.611-7.611l-.003-153.065c0-4.204 3.408-7.611 7.611-7.611s7.611 3.408 7.612 7.611l.002 153.065c0 4.203-3.408 7.611-7.611 7.611z" fill="#bdecf9" data-original="#bdecf9"></path></g><path d="m349.33 497.517-.07-.024c-26.868-9.304-50.968-25.208-70.09-46.251l-15.661-17.235c-4.027-4.431-10.995-4.431-15.022 0l-15.661 17.235c-19.122 21.043-43.222 36.947-70.09 46.251l-.07.024c-7.935 2.748-5.961 14.483 2.437 14.483h181.79c8.398 0 10.373-11.735 2.437-14.483z" fill="#f1faff" data-original="#f1faff"></path><path d="m346.891 512h-22.784c-.359-.187-.747-.345-1.149-.488l-.072-.029c-26.878-9.295-50.97-25.198-70.091-46.244l-16.348-17.986 12.041-13.244c4.027-4.43 10.994-4.429 15.02.002l15.663 17.236c19.121 21.031 43.227 36.949 70.091 46.244l.072.029c7.929 2.743 5.961 14.48-2.443 14.48z" fill="#c9f0fd" data-original="#c9f0fd"></path></g></g></g><g><path d="m490.95 95.562c-2.486 14.147-6.658 27.817-12.32 40.858h-445.26c-5.663-13.041-9.834-26.711-12.32-40.858-1.167-6.617 3.958-12.676 10.676-12.676h448.538c6.718 0 11.853 6.059 10.686 12.676z" fill="#f1faff" data-original="#f1faff"></path><path d="m194.56 31.849c1.208-16.309-11.082-30.558-27.391-31.765-7.896-.589-15.548 1.938-21.556 7.114-5.998 5.176-9.621 12.371-10.209 20.277-.578 7.896 1.949 15.558 7.124 21.556 5.166 5.998 12.371 9.621 20.267 10.209.741.051 1.482.081 2.212.081.264 0 .518-.02.771-.02l9.661 33.734h15.832l-10.889-38.047c7.896-4.821 13.448-13.234 14.178-23.139zm-15.182-1.127c-.589 7.936-7.52 13.914-15.456 13.335-3.846-.284-7.348-2.05-9.864-4.973-2.517-2.923-3.755-6.647-3.471-10.494.284-3.836 2.05-7.348 4.973-9.864 2.639-2.273 5.947-3.501 9.408-3.501.355 0 .721.01 1.086.041 7.935.589 13.913 7.52 13.324 15.456z" fill="#fb4a59" data-original="#fb4a59"></path><path d="m490.95 95.562c-2.486 14.147-6.658 27.817-12.32 40.858h-445.26c-5.663-13.041-9.834-26.711-12.32-40.858-1.167-6.617 3.958-12.676 10.676-12.676h448.538c6.718 0 11.853 6.059 10.686 12.676z" fill="#f1faff" data-original="#f1faff"></path><path d="m490.95 95.552c-2.497 14.147-6.658 27.828-12.331 40.868h-46.958c5.673-13.041 9.844-26.721 12.33-40.868 1.167-6.607-3.968-12.676-10.686-12.676h46.968c6.719 0 11.844 6.069 10.677 12.676z" fill="#c9f0fd" data-original="#c9f0fd"></path><path d="m188.37 82.886h-15.842l15.324 53.534h15.842z" fill="#fc9aa1" data-original="#fc9aa1"></path><path d="m473.048 148.132c-27.351 52.793-79.809 93.773-144.283 111.645-24.742 6.86-47.536 17.537-66.808 31.664-3.542 2.608-8.383 2.608-11.925 0-19.272-14.127-42.066-24.813-66.798-31.664-64.484-17.872-116.932-58.852-144.282-111.645z" fill="#fb6672" data-original="#fb6672"></path><path d="m473.048 148.132c-27.351 52.793-79.799 93.773-144.283 111.645-13.68 3.785-26.752 8.748-38.96 14.807-9.895 4.902-19.221 10.534-27.838 16.857-3.542 2.598-8.362 2.618-11.904.02-5.561-4.08-11.427-7.875-17.547-11.377 3.359-1.928 6.81-3.755 10.321-5.501 12.219-6.059 25.3-11.021 38.971-14.807 64.474-17.872 116.922-58.852 144.283-111.645h46.957z" fill="#fb4a59" data-original="#fb4a59"></path><path d="m229.218 225.586-22.175-77.454h-15.832l23.372 81.646c.954 3.339 3.999 5.521 7.307 5.521.7 0 1.401-.101 2.101-.304 4.039-1.158 6.384-5.37 5.227-9.409z" fill="#fb4a59" data-original="#fb4a59"></path><path d="m467.367 158.276c6.096-10.203 11.251-20.893 15.314-32.004h-453.364c4.063 11.111 9.218 21.801 15.314 32.004z" fill="#ffc4c8" data-original="#ffc4c8"></path><g fill="#fcb5ba"><path d="m467.367 158.276c6.096-10.203 11.251-20.893 15.315-32.004h-46.964c-4.063 11.111-9.217 21.801-15.313 32.004z" fill="#fcb5ba" data-original="#fcb5ba"></path><path d="m200.792 126.272h-15.842l9.164 32.009h15.842z" fill="#fcb5ba" data-original="#fcb5ba"></path></g></g></g></g></g><g><circle cx="228.646" cy="243.039" fill="#8dc637" r="31.266" data-original="#8dc637"></circle><g fill="#82b732"><path d="m229.218 225.586-3.907-13.63c-1.675.173-3.369.497-5.044.964-3.4.944-6.515 2.415-9.276 4.303l3.593 12.554c.954 3.339 3.999 5.521 7.307 5.521.7 0 1.401-.101 2.101-.304 4.038-1.157 6.383-5.369 5.226-9.408z" fill="#82b732" data-original="#82b732"></path><path d="m237.023 273.16c-8.531 2.375-17.219.968-24.288-3.212 1.048-.177 2.09-.403 3.132-.695 16.641-4.625 26.376-21.86 21.751-38.501-2.258-8.109-7.508-14.577-14.22-18.53 15.619-2.682 31.036 6.848 35.369 22.447 4.632 16.631-5.111 33.867-21.744 38.491z" fill="#82b732" data-original="#82b732"></path></g></g><g><circle cx="281.948" cy="247.27" fill="#99d53b" r="27.963" data-original="#99d53b"></circle><path d="m289.44 274.209c-7.63 2.124-15.4.866-21.723-2.873.937-.159 1.869-.361 2.801-.622 14.883-4.137 23.59-19.551 19.453-34.434-2.019-7.252-6.715-13.037-12.718-16.572 13.969-2.398 27.757 6.124 31.633 20.075 4.144 14.875-4.571 30.29-19.446 34.426z" fill="#8dc637" data-original="#8dc637"></path></g></g><g id="XMLID_728_"><path d="m325.543 205.932c-.01 0-.02 0-.03 0l-.133-.001c-4.203-.016-7.599-3.436-7.583-7.64.016-4.194 3.42-7.583 7.61-7.583h.03l.133.001c4.203.016 7.599 3.436 7.583 7.64-.016 4.194-3.42 7.583-7.61 7.583z" fill="#fcb5ba" data-original="#fcb5ba"></path></g><g id="XMLID_730_"><path d="m357.667 197.058h-.133c-4.204 0-7.611-3.408-7.611-7.611 0-4.204 3.407-7.611 7.611-7.611h.133c4.204 0 7.611 3.408 7.611 7.611.001 4.203-3.406 7.611-7.611 7.611z" fill="#fb4a59" data-original="#fb4a59"></path></g><g id="XMLID_733_"><path d="m143.005 197.03h-.132c-4.204 0-7.611-3.408-7.611-7.611s3.408-7.611 7.611-7.611h.132c4.204 0 7.611 3.408 7.611 7.611s-3.408 7.611-7.611 7.611z" fill="#fb4a59" data-original="#fb4a59"></path></g></g></g></svg>
