<svg xmlns="http://www.w3.org/2000/svg" version="1.1" width="512" height="512" x="0" y="0" viewBox="0 0 64 64" style="enable-background:new 0 0 512 512" xml:space="preserve" class=""><g><g xmlns="http://www.w3.org/2000/svg" id="innovation-document-idea-money-arrow_up" data-name="innovation-document-idea-money-arrow up"><rect fill="#ffffff" height="58" rx="2" width="44" x="3" y="3" data-original="#e0e0e2" class=""></rect><path d="m61 25a14.724 14.724 0 0 1 -5.76 11.64 5.828 5.828 0 0 0 -2.24 4.67v1.69h-12v-1.69a5.888 5.888 0 0 0 -2.3-4.71 14.618 14.618 0 0 1 -4.63-17.02 13.91 13.91 0 0 1 10.66-8.4 14.761 14.761 0 0 1 2.27-.18 14 14 0 0 1 14 14z" fill="#ffeb99" data-original="#ffeb99" class=""></path><path d="m53 43a2.006 2.006 0 0 1 2 2 2.015 2.015 0 0 1 -2 2h-12a2.006 2.006 0 0 1 -2-2 2.015 2.015 0 0 1 2-2z" fill="#a78966" data-original="#a78966"></path><path d="m41 47h12a6 6 0 0 1 -6 6 6.009 6.009 0 0 1 -6-6z" fill="#898890" data-original="#898890"></path><path d="m29 35 6 8h-3v12h-6v-12h-3z" fill="#ff3051" data-original="#ff3051"></path><circle cx="17" cy="17" fill="#ffd422" r="10" data-original="#ffd422" class=""></circle><path d="m27 17a10 10 0 0 1 -11.99 9.8 10.005 10.005 0 0 0 0-19.6 10 10 0 0 1 11.99 9.8z" fill="#ebbf00" data-original="#ebbf00" class=""></path><path d="m17 47h4v8h-4z" fill="#9cdd05" data-original="#9cdd05"></path><path d="m9 47h4v8h-4z" fill="#2488ff" data-original="#2488ff"></path><path d="m61 25a14.724 14.724 0 0 1 -5.76 11.64 5.828 5.828 0 0 0 -2.24 4.67v1.69h-8v-1.69a5.828 5.828 0 0 1 2.24-4.67 14.724 14.724 0 0 0 5.76-11.64 13.976 13.976 0 0 0 -10.03-13.42 12.842 12.842 0 0 1 1.76-.4 14.006 14.006 0 0 1 16.27 13.82z" fill="#ffde55" data-original="#ffde55" class=""></path><path d="m55 45a2.015 2.015 0 0 1 -2 2h-4a2.015 2.015 0 0 0 2-2 2.006 2.006 0 0 0 -2-2h4a2.006 2.006 0 0 1 2 2z" fill="#806749" data-original="#806749" class=""></path><path d="m53 47a6 6 0 0 1 -6 6 5.427 5.427 0 0 1 -1.35-.16 4.707 4.707 0 0 1 -.64-.19 6 6 0 0 0 3.99-5.65z" fill="#57565c" data-original="#57565c" class=""></path><path d="m35 43h-3v12h-3v-20z" fill="#cd2a00" data-original="#cd2a00"></path><path d="m19 47h2v8h-2z" fill="#5eac24" data-original="#5eac24"></path><path d="m11 47h2v8h-2z" fill="#005ece" data-original="#005ece"></path><path d="m55.84 37.44a15.635 15.635 0 0 0 6.16-12.44 14.981 14.981 0 0 0 -14-14.95v-5.05a3.009 3.009 0 0 0 -3-3h-40a3.009 3.009 0 0 0 -3 3v54a3.009 3.009 0 0 0 3 3h40a3.009 3.009 0 0 0 3-3v-5.08a7.013 7.013 0 0 0 5.95-6.09 2.983 2.983 0 0 0 .05-5.65v-.87a4.848 4.848 0 0 1 1.84-3.87zm-9.84 21.56a1 1 0 0 1 -1 1h-40a1 1 0 0 1 -1-1v-54a1 1 0 0 1 1-1h40a1 1 0 0 1 1 1v5.04c-.47.03-.95.08-1.42.15a14.923 14.923 0 0 0 -11.43 9.01 15.5 15.5 0 0 0 4.95 18.19 4.938 4.938 0 0 1 1.9 3.92v.87a2.983 2.983 0 0 0 .05 5.65 7.013 7.013 0 0 0 5.95 6.09zm1-7a5.009 5.009 0 0 1 -4.9-4h9.8a5.009 5.009 0 0 1 -4.9 4zm6-6h-12a1 1 0 0 1 0-2h12a1 1 0 0 1 0 2zm-1-4.69v.69h-10v-.69a6.951 6.951 0 0 0 -2.69-5.51 13.682 13.682 0 0 1 -4.31-15.84 12.878 12.878 0 0 1 9.89-7.79 13.014 13.014 0 0 1 15.11 12.83 13.8 13.8 0 0 1 -5.36 10.84 6.844 6.844 0 0 0 -2.64 5.47z" fill="#202020" data-original="#000000" class=""></path><path d="m47 20a3 3 0 0 1 3 3 1 1 0 0 0 2 0 5.009 5.009 0 0 0 -4-4.9v-1.1a1 1 0 0 0 -2 0v1.1a5 5 0 0 0 1 9.9 3 3 0 1 1 -3 3 1 1 0 0 0 -2 0 5.009 5.009 0 0 0 4 4.9v1.1a1 1 0 0 0 2 0v-1.1a5 5 0 0 0 -1-9.9 3 3 0 0 1 0-6z" fill="#202020" data-original="#000000" class=""></path><path d="m35.8 42.4-6-8a1.041 1.041 0 0 0 -1.6 0l-6 8a1 1 0 0 0 -.09 1.05.977.977 0 0 0 .89.55h2v11a1 1 0 0 0 1 1h6a1 1 0 0 0 1-1v-11h2a.977.977 0 0 0 .89-.55 1 1 0 0 0 -.09-1.05zm-3.8-.4a1 1 0 0 0 -1 1v11h-4v-11a1 1 0 0 0 -1-1h-1l4-5.33 4 5.33z" fill="#202020" data-original="#000000" class=""></path><path d="m13 46h-4a1 1 0 0 0 -1 1v8a1 1 0 0 0 1 1h4a1 1 0 0 0 1-1v-8a1 1 0 0 0 -1-1zm-1 8h-2v-6h2z" fill="#202020" data-original="#000000" class=""></path><path d="m21 46h-4a1 1 0 0 0 -1 1v8a1 1 0 0 0 1 1h4a1 1 0 0 0 1-1v-8a1 1 0 0 0 -1-1zm-1 8h-2v-6h2z" fill="#202020" data-original="#000000" class=""></path><path d="m17 20a1 1 0 0 1 -1-1 1 1 0 0 0 -2 0 3 3 0 0 0 2 2.816v1.184a1 1 0 0 0 2 0v-1.184a2.993 2.993 0 0 0 -1-5.816 1 1 0 1 1 1-1 1 1 0 0 0 2 0 3 3 0 0 0 -2-2.816v-1.184a1 1 0 0 0 -2 0v1.184a2.993 2.993 0 0 0 1 5.816 1 1 0 0 1 0 2z" fill="#202020" data-original="#000000" class=""></path><path d="m17 6a11 11 0 1 0 11 11 11.007 11.007 0 0 0 -11-11zm0 20a9 9 0 1 1 9-9 9.014 9.014 0 0 1 -9 9z" fill="#202020" data-original="#000000" class=""></path><path d="m26 32a1 1 0 0 0 0-2h-18a1 1 0 0 0 0 2z" fill="#202020" data-original="#000000" class=""></path><path d="m60 4v-2h-2v2h-2v2h2v2h2v-2h2v-2z" fill="#202020" data-original="#000000" class=""></path><path d="m60 56h-2v2h-2v2h2v2h2v-2h2v-2h-2z" fill="#202020" data-original="#000000" class=""></path></g></g></svg>
