<svg width="39" height="39" viewBox="0 0 39 39" fill="none" xmlns="http://www.w3.org/2000/svg">
<path d="M19.5 0.75C15.7916 0.75 12.1665 1.84967 9.08307 3.90994C5.99964 5.97022 3.59641 8.89857 2.17727 12.3247C0.758124 15.7508 0.386812 19.5208 1.11028 23.1579C1.83376 26.7951 3.61952 30.136 6.24176 32.7583C8.86399 35.3805 12.2049 37.1663 15.8421 37.8897C19.4792 38.6132 23.2492 38.2419 26.6753 36.8227C30.1014 35.4036 33.0298 33.0004 35.0901 29.9169C37.1503 26.8335 38.25 23.2084 38.25 19.5C38.25 17.0377 37.765 14.5995 36.8228 12.3247C35.8805 10.0498 34.4994 7.98285 32.7583 6.24175C31.0172 4.50065 28.9502 3.11953 26.6753 2.17726C24.4005 1.23498 21.9623 0.75 19.5 0.75ZM19.5 4.5C20.6298 4.50738 21.7554 4.63943 22.8563 4.89375C22.5303 5.62949 22.028 6.2735 21.3938 6.76875C20.9813 7.0875 20.5313 7.35 20.0813 7.63125C18.6567 8.33265 17.4556 9.4169 16.6125 10.7625C15.6889 12.6873 15.288 14.8212 15.45 16.95C15.45 19.5 15.45 21 13.6688 22.3313C11.1 24.3375 7.18126 23.2125 4.74376 22.2C4.58441 21.3088 4.50285 20.4054 4.50001 19.5C4.50001 15.5218 6.08036 11.7064 8.89341 8.8934C11.7065 6.08035 15.5218 4.5 19.5 4.5ZM6.37501 26.625C7.60019 26.9435 8.85923 27.1135 10.125 27.1312C12.243 27.1895 14.3183 26.5286 16.0125 25.2562C19.2188 22.7437 19.2188 19.5188 19.2188 16.9312C19.0766 15.4337 19.3152 13.9244 19.9125 12.5437C20.4552 11.8048 21.1782 11.2174 22.0125 10.8375C22.6086 10.4891 23.1846 10.1073 23.7375 9.69375C24.9027 8.77336 25.8076 7.56478 26.3625 6.1875C29.0005 7.53724 31.1797 9.63809 32.625 12.225C29.9438 12.6 26.1375 13.4812 25.3875 16.9688C25.2182 17.802 25.1303 18.6497 25.125 19.5C25.1857 20.4503 24.9983 21.4002 24.5813 22.2563L24.3938 22.575C23.175 24.6 21.8063 26.9062 23.6625 30.075C23.8875 30.4687 24.1313 30.8438 24.375 31.2188C24.874 31.7952 25.2106 32.4942 25.35 33.2438C23.5059 34.0566 21.5152 34.4841 19.5 34.5C16.8068 34.4866 14.1669 33.7482 11.8575 32.3626C9.54803 30.9769 7.65426 28.995 6.37501 26.625ZM28.7438 31.35C28.4194 30.6013 28.0238 29.8855 27.5625 29.2125C27.3563 28.9125 27.15 28.6125 26.9625 28.2938C26.2313 27.0188 26.4938 26.4187 27.675 24.5437L27.8625 24.225C28.5973 22.8226 28.9467 21.2503 28.875 19.6688C28.8731 19.0399 28.9296 18.4122 29.0438 17.7938C29.3438 16.425 32.25 16.05 34.05 15.9188C34.7775 18.7472 34.657 21.7272 33.7035 24.4877C32.75 27.2482 31.0056 29.6673 28.6875 31.4438L28.7438 31.35Z" fill="black"/>
</svg>
