<svg xmlns="http://www.w3.org/2000/svg" version="1.1" width="512" height="512" x="0" y="0" viewBox="0 0 512 512" style="enable-background:new 0 0 512 512" xml:space="preserve" class=""><g><path xmlns="http://www.w3.org/2000/svg" d="m40 496a8 8 0 0 1 -8-8v-32a8 8 0 0 1 16 0v32a8 8 0 0 1 -8 8z" fill="#c79e10" data-original="#c79e10"></path><path xmlns="http://www.w3.org/2000/svg" d="m168 496a8 8 0 0 1 -8-8v-32a8 8 0 0 1 16 0v32a8 8 0 0 1 -8 8z" fill="#c79e10" data-original="#c79e10"></path><path xmlns="http://www.w3.org/2000/svg" d="m396.286 170.255a55.985 55.985 0 0 0 -24.479-86.639 48 48 0 1 0 -87.614 0 55.985 55.985 0 0 0 -24.479 86.639 60 60 0 1 0 68.286 87.663 60 60 0 1 0 68.286-87.663z" fill="#38b37a" data-original="#38b37a"></path><path xmlns="http://www.w3.org/2000/svg" d="m204.286 170.255a55.985 55.985 0 0 0 -24.479-86.639 48 48 0 1 0 -87.614 0 55.985 55.985 0 0 0 -24.479 86.639 60 60 0 1 0 68.286 87.663 60 60 0 1 0 68.286-87.663z" fill="#3dc285" data-original="#3dc285"></path><g xmlns="http://www.w3.org/2000/svg" fill="#ad6643"><path d="m328 488a8 8 0 0 1 -8-8v-352a8 8 0 0 1 16 0v352a8 8 0 0 1 -8 8z" fill="#ad6643" data-original="#ad6643"></path><path d="m328 184a8 8 0 0 1 -5.657-13.657l32-32a8 8 0 0 1 11.314 11.314l-32 32a7.976 7.976 0 0 1 -5.657 2.343z" fill="#ad6643" data-original="#ad6643"></path><path d="m328 240a7.976 7.976 0 0 1 -5.657-2.343l-32-32a8 8 0 0 1 11.314-11.314l32 32a8 8 0 0 1 -5.657 13.657z" fill="#ad6643" data-original="#ad6643"></path><path d="m136 488a8 8 0 0 1 -8-8v-352a8 8 0 0 1 16 0v352a8 8 0 0 1 -8 8z" fill="#ad6643" data-original="#ad6643"></path><path d="m136 184a8 8 0 0 1 -5.657-13.657l32-32a8 8 0 0 1 11.314 11.314l-32 32a7.976 7.976 0 0 1 -5.657 2.343z" fill="#ad6643" data-original="#ad6643"></path></g><path xmlns="http://www.w3.org/2000/svg" d="m40 392h128v32h-128z" fill="#f7cc38" data-original="#f7cc38"></path><path xmlns="http://www.w3.org/2000/svg" d="m184 464h-160a8 8 0 0 1 0-16h160a8 8 0 0 1 0 16z" fill="#d4a811" data-original="#d4a811"></path><path xmlns="http://www.w3.org/2000/svg" d="m216 440h32v48h-32z" fill="#9aa3a8" data-original="#9aa3a8" class=""></path><path xmlns="http://www.w3.org/2000/svg" d="m464 488a24 24 0 0 0 0-48c-.52 0-1 .12-1.517.153a23.888 23.888 0 0 0 -38.648-25.788 23.819 23.819 0 0 0 -39.835-16.136 23.819 23.819 0 0 0 -39.835 16.136 23.858 23.858 0 0 0 -38.648 25.788c-.512-.033-1-.153-1.517-.153a24 24 0 0 0 0 48z" fill="#2e9163" data-original="#2e9163" class=""></path><circle xmlns="http://www.w3.org/2000/svg" cx="384" cy="432" fill="#e38fa7" r="8" data-original="#e38fa7" class=""></circle><circle xmlns="http://www.w3.org/2000/svg" cx="432" cy="448" fill="#e38fa7" r="8" data-original="#e38fa7" class=""></circle><circle xmlns="http://www.w3.org/2000/svg" cx="336" cy="456" fill="#e38fa7" r="8" data-original="#e38fa7" class=""></circle><path xmlns="http://www.w3.org/2000/svg" d="m136 240a7.976 7.976 0 0 1 -5.657-2.343l-32-32a8 8 0 0 1 11.314-11.314l32 32a8 8 0 0 1 -5.657 13.657z" fill="#ad6643" data-original="#ad6643"></path><path xmlns="http://www.w3.org/2000/svg" d="m40 424h16v24h-16z" fill="#c79e10" data-original="#c79e10"></path><path xmlns="http://www.w3.org/2000/svg" d="m152 424h16v24h-16z" fill="#c79e10" data-original="#c79e10"></path><path xmlns="http://www.w3.org/2000/svg" d="m488 496h-464a8 8 0 0 1 0-16h464a8 8 0 0 1 0 16z" fill="#596063" data-original="#596063" class=""></path></g></svg>
