<svg xmlns="http://www.w3.org/2000/svg" version="1.1" width="512" height="512" x="0" y="0" viewBox="0 0 512 512" style="enable-background:new 0 0 512 512" xml:space="preserve" class=""><g><g xmlns="http://www.w3.org/2000/svg"><path d="m272.067 512h-224.934c-25.989 0-47.133-21.145-47.133-47.134v-223.792c0-25.464 9.917-49.403 27.923-67.41 7.747-7.752 15.576-15.58 20.277-20.279v-41.985c0-8.284 6.716-15 15-15h192.8c8.284 0 15 6.716 15 15v41.984c4.701 4.699 12.531 12.527 20.281 20.283 18.003 18.003 27.919 41.942 27.919 67.406v223.792c0 25.99-21.144 47.135-47.133 47.135z" fill="#faf7fb" data-original="#faf7fb"></path><path d="m319.2 464.866v-223.792c0-25.464-9.917-49.403-27.919-67.406-7.75-7.756-15.58-15.584-20.281-20.283v-41.985c0-8.284-6.716-15-15-15h-96.4v415.6h112.467c25.989 0 47.133-21.145 47.133-47.134z" fill="#e3e6ed" data-original="#e3e6ed"></path><path d="m191.733 415.6h-64.267c-8.284 0-15-6.716-15-15v-33.2h-33.2c-8.284 0-15-6.716-15-15v-64.267c0-8.284 6.716-15 15-15h33.2v-33.2c0-8.284 6.716-15 15-15h64.267c8.284 0 15 6.716 15 15v33.2h33.2c8.284 0 15 6.716 15 15v64.267c0 8.284-6.716 15-15 15h-33.2v33.2c0 8.284-6.715 15-15 15z" fill="#fe5677" data-original="#fe5677"></path><path d="m206.733 400.6v-33.2h33.2c8.284 0 15-6.716 15-15v-64.267c0-8.284-6.716-15-15-15h-33.2v-33.2c0-8.284-6.716-15-15-15h-32.133v190.667h32.133c8.285 0 15-6.716 15-15z" fill="#f8024e" data-original="#f8024e"></path><path d="m95.333 126.4h-64.266c-8.284 0-15-6.716-15-15v-96.4c0-8.284 6.716-15 15-15h64.267c8.284 0 15 6.716 15 15v96.4c-.001 8.285-6.716 15-15.001 15z" fill="#ffeb22" data-original="#ffeb22"></path><path d="m288.133 126.4h-64.267c-8.284 0-15-6.716-15-15v-96.4c0-8.284 6.716-15 15-15h64.267c8.284 0 15 6.716 15 15v96.4c0 8.285-6.716 15-15 15z" fill="#fdbc43" data-original="#fdbc43"></path><path d="m223.867 0h-128.534c-8.284 0-15 6.716-15 15v96.4c0 8.284 6.716 15 15 15h128.533c8.284 0 15-6.716 15-15v-96.4c.001-8.284-6.715-15-14.999-15z" fill="#fdbc43" data-original="#fdbc43"></path><path d="m238.867 111.4v-96.4c0-8.284-6.716-15-15-15h-64.267v126.4h64.267c8.284 0 15-6.715 15-15z" fill="#fa8c64" data-original="#fa8c64"></path><path d="m415.6 400.6c0-8.284-6.716-15-15-15h-48.2c-34.905 0-63.2 28.296-63.2 63.2s28.296 63.2 63.2 63.2h48.2c8.284 0 15-6.716 15-15z" fill="#fe5677" data-original="#fe5677"></path><path d="m352.4 512h48.2c8.284 0 15-6.716 15-15v-48.2h-126.4c0 34.904 28.296 63.2 63.2 63.2z" fill="#f8024e" data-original="#f8024e"></path><path d="m400.6 385.6h48.2c34.905 0 63.2 28.296 63.2 63.2s-28.296 63.2-63.2 63.2h-48.2z" fill="#faf7fb" data-original="#faf7fb"></path><path d="m448.8 512c34.905 0 63.2-28.296 63.2-63.2h-111.4v63.2z" fill="#e3e6ed" data-original="#e3e6ed"></path></g></g></svg>
