<svg xmlns="http://www.w3.org/2000/svg" version="1.1" width="512" height="512" x="0" y="0" viewBox="0 0 512 512" style="enable-background:new 0 0 512 512" xml:space="preserve" class="">
<circle xmlns="http://www.w3.org/2000/svg" style="" cx="256" cy="235.299" r="235.299" fill="#f7b239" data-original="#f7b239"></circle>
<circle xmlns="http://www.w3.org/2000/svg" style="" cx="256" cy="235.299" r="154.878" fill="#e09b2d" data-original="#e09b2d"></circle>
<path xmlns="http://www.w3.org/2000/svg" style="" d="M467.701,485.79c0.482,1.802,0.716,3.617,0.716,5.395c0,9.198-6.136,17.605-15.432,20.099  c-11.099,2.975-22.519-3.617-25.494-14.716l-34.976-130.532c-2.975-11.099,3.617-22.519,14.716-25.494  c11.111-2.975,22.519,3.617,25.494,14.729L467.701,485.79z" fill="#f24c8f" data-original="#f24c8f"></path>
		<rect x="101.998" y="191.651" transform="matrix(-0.9659 -0.2588 0.2588 -0.9659 145.515 584.8867)" style="" width="18.518" height="182.428" fill="#cccccc" data-original="#cccccc"></rect>
    <rect x="344.769" y="283.319" transform="matrix(-0.2587 -0.966 0.966 -0.2587 213.8077 749.2353)" style="" width="99.242" height="18.518" fill="#cccccc" data-original="#cccccc"></rect>
<path xmlns="http://www.w3.org/2000/svg" style="" d="M168.451,69.477c29.593,7.926,43.062,53.581,30.099,101.952  c-12.963,48.383-42.235,61.704-71.828,53.778c-29.581-7.926-48.272-34.099-35.309-82.482S138.87,61.551,168.451,69.477z" fill="#e6e6e6" data-original="#e6e6e6"></path>
<path xmlns="http://www.w3.org/2000/svg" style="" d="M95.821,340.542c11.111,2.975,17.692,14.395,14.716,25.494L75.574,496.568  C73.08,505.864,64.672,512,55.475,512c-1.778,0-3.593-0.235-5.395-0.716c-11.111-2.975-17.704-14.395-14.729-25.494l34.976-130.52  C73.302,344.159,84.722,337.566,95.821,340.542z" fill="#f24c8f" data-original="#f24c8f"></path>
<path xmlns="http://www.w3.org/2000/svg" style="" d="M418.108,192.703l-29.594-110.45c-1.168-4.354-5.699-6.912-10.054-5.61  c-4.214,1.261-6.499,5.842-5.361,10.09l23.594,88.039c1.764,6.584-2.142,13.352-8.726,15.117l-0.011,0.002  c-6.585,1.767-13.356-2.142-15.121-8.727l-23.68-88.37c-1.167-4.357-5.704-6.914-10.058-5.609c-4.212,1.263-6.494,5.843-5.357,10.09  l23.594,88.047c1.764,6.585-2.143,13.353-8.728,15.119l0,0c-6.585,1.764-13.353-2.143-15.119-8.728l-23.679-88.375  c-1.167-4.356-5.699-6.912-10.054-5.61c-4.214,1.261-6.5,5.841-5.362,10.089l29.504,110.117  c3.367,12.587,11.435,23.106,22.719,29.621c7.515,4.34,15.854,6.556,24.306,6.556c4.237,0,8.505-0.558,12.708-1.684  c21.282-5.704,36.145-25.061,36.145-47.072C419.774,201.07,419.213,196.807,418.108,192.703z" fill="#e6e6e6" data-original="#e6e6e6"></path>
</svg>
