<svg xmlns="http://www.w3.org/2000/svg" version="1.1" width="512" height="512" x="0" y="0" viewBox="0 0 512 512" style="enable-background:new 0 0 512 512" xml:space="preserve" class=""><g><rect xmlns="http://www.w3.org/2000/svg" fill="#353744" height="32" rx="16" width="400" x="56" y="36" data-original="#353744"></rect><rect xmlns="http://www.w3.org/2000/svg" fill="#55525b" height="32" rx="16" width="200" x="56" y="36" data-original="#55525b"></rect><path xmlns="http://www.w3.org/2000/svg" d="m128 68h256a0 0 0 0 1 0 0v72a8 8 0 0 1 -8 8h-240a8 8 0 0 1 -8-8v-72a0 0 0 0 1 0 0z" fill="#353744" data-original="#353744"></path><path xmlns="http://www.w3.org/2000/svg" d="m128 84h128a0 0 0 0 1 0 0v64a0 0 0 0 1 0 0h-120a8 8 0 0 1 -8-8v-56a0 0 0 0 1 0 0z" fill="#55525b" data-original="#55525b"></path><path xmlns="http://www.w3.org/2000/svg" d="m256 20h168a16 16 0 0 1 16 16 0 0 0 0 1 0 0h-200a0 0 0 0 1 0 0 16 16 0 0 1 16-16z" fill="#fabe19" data-original="#fabe19"></path><path xmlns="http://www.w3.org/2000/svg" d="m424 36h16v80h-16z" fill="#f5871e" data-original="#f5871e"></path><path xmlns="http://www.w3.org/2000/svg" d="m424 116h16v8h-16z" fill="#d7e6f0" data-original="#d7e6f0"></path><path xmlns="http://www.w3.org/2000/svg" d="m424 124h16a8 8 0 0 1 8 8v36a4 4 0 0 1 -4 4h-24a4 4 0 0 1 -4-4v-36a8 8 0 0 1 8-8z" fill="#fabe19" data-original="#fabe19"></path><path xmlns="http://www.w3.org/2000/svg" d="m436 132h12a0 0 0 0 1 0 0v36a4 4 0 0 1 -4 4h-12a0 0 0 0 1 0 0v-36a4 4 0 0 1 4-4z" fill="#f5871e" data-original="#f5871e"></path><path xmlns="http://www.w3.org/2000/svg" d="m152 300h264v160h-264z" fill="#4b55a5" data-original="#4b55a5"></path><path xmlns="http://www.w3.org/2000/svg" d="m152 332h168v128h-168z" fill="#6478b9" data-original="#6478b9"></path><path xmlns="http://www.w3.org/2000/svg" d="m208 364h56a16 16 0 0 1 16 16v80a0 0 0 0 1 0 0h-88a0 0 0 0 1 0 0v-80a16 16 0 0 1 16-16z" fill="#353744" data-original="#353744"></path><path xmlns="http://www.w3.org/2000/svg" d="m80 268h352a0 0 0 0 1 0 0v16a16 16 0 0 1 -16 16h-320a16 16 0 0 1 -16-16v-16a0 0 0 0 1 0 0z" fill="#d7e6f0" data-original="#d7e6f0"></path><path xmlns="http://www.w3.org/2000/svg" d="m272 268h144a16 16 0 0 1 16 16v16a0 0 0 0 1 0 0h-176a0 0 0 0 1 0 0v-16a16 16 0 0 1 16-16z" fill="#a5c3dc" transform="matrix(-1 0 0 -1 688 568)" data-original="#a5c3dc"></path><path xmlns="http://www.w3.org/2000/svg" d="m96 460h320a16 16 0 0 1 16 16v16a0 0 0 0 1 0 0h-352a0 0 0 0 1 0 0v-16a16 16 0 0 1 16-16z" fill="#d7e6f0" data-original="#d7e6f0"></path><path xmlns="http://www.w3.org/2000/svg" d="m256 460h176a0 0 0 0 1 0 0v16a16 16 0 0 1 -16 16h-144a16 16 0 0 1 -16-16v-16a0 0 0 0 1 0 0z" fill="#a5c3dc" transform="matrix(-1 0 0 -1 688 952)" data-original="#a5c3dc"></path><path xmlns="http://www.w3.org/2000/svg" d="m96 300h64a0 0 0 0 1 0 0v24a8 8 0 0 1 -8 8h-48a8 8 0 0 1 -8-8v-24a0 0 0 0 1 0 0z" fill="#a5c3dc" data-original="#a5c3dc"></path><path xmlns="http://www.w3.org/2000/svg" d="m96 300h24a0 0 0 0 1 0 0v24a8 8 0 0 1 -8 8h-8a8 8 0 0 1 -8-8v-24a0 0 0 0 1 0 0z" fill="#d7e6f0" data-original="#d7e6f0"></path><path xmlns="http://www.w3.org/2000/svg" d="m104 428h48a8 8 0 0 1 8 8v24a0 0 0 0 1 0 0h-64a0 0 0 0 1 0 0v-24a8 8 0 0 1 8-8z" fill="#a5c3dc" data-original="#a5c3dc"></path><path xmlns="http://www.w3.org/2000/svg" d="m104 428h8a8 8 0 0 1 8 8v24a0 0 0 0 1 0 0h-24a0 0 0 0 1 0 0v-24a8 8 0 0 1 8-8z" fill="#d7e6f0" data-original="#d7e6f0"></path><path xmlns="http://www.w3.org/2000/svg" d="m104 332h48v96h-48z" fill="#a5c3dc" data-original="#a5c3dc"></path><path xmlns="http://www.w3.org/2000/svg" d="m104 348h8a16 16 0 0 1 16 16v64a0 0 0 0 1 0 0h-24a0 0 0 0 1 0 0v-80a0 0 0 0 1 0 0z" fill="#d7e6f0" data-original="#d7e6f0"></path><path xmlns="http://www.w3.org/2000/svg" d="m224 300h64a0 0 0 0 1 0 0v24a8 8 0 0 1 -8 8h-48a8 8 0 0 1 -8-8v-24a0 0 0 0 1 0 0z" fill="#a5c3dc" data-original="#a5c3dc"></path><path xmlns="http://www.w3.org/2000/svg" d="m224 300h24a0 0 0 0 1 0 0v24a8 8 0 0 1 -8 8h-8a8 8 0 0 1 -8-8v-24a0 0 0 0 1 0 0z" fill="#d7e6f0" data-original="#d7e6f0"></path><path xmlns="http://www.w3.org/2000/svg" d="m232 428h48a8 8 0 0 1 8 8v24a0 0 0 0 1 0 0h-64a0 0 0 0 1 0 0v-24a8 8 0 0 1 8-8z" fill="#a5c3dc" data-original="#a5c3dc"></path><path xmlns="http://www.w3.org/2000/svg" d="m232 428h8a8 8 0 0 1 8 8v24a0 0 0 0 1 0 0h-24a0 0 0 0 1 0 0v-24a8 8 0 0 1 8-8z" fill="#d7e6f0" data-original="#d7e6f0"></path><path xmlns="http://www.w3.org/2000/svg" d="m232 332h48v96h-48z" fill="#a5c3dc" data-original="#a5c3dc"></path><path xmlns="http://www.w3.org/2000/svg" d="m232 348h8a16 16 0 0 1 16 16v64a0 0 0 0 1 0 0h-24a0 0 0 0 1 0 0v-80a0 0 0 0 1 0 0z" fill="#d7e6f0" data-original="#d7e6f0"></path><path xmlns="http://www.w3.org/2000/svg" d="m80 268 88-88 88 88z" fill="#55525b" data-original="#55525b"></path><g xmlns="http://www.w3.org/2000/svg" fill="#353744"><path d="m168 204-64 64h24l52-52z" fill="#353744" data-original="#353744"></path><path d="m256 268-88-88h169.373a16 16 0 0 1 11.313 4.686l83.314 83.314z" fill="#353744" data-original="#353744"></path></g></g></svg>
