<svg width="33" height="33" viewBox="0 0 33 33" fill="none" xmlns="http://www.w3.org/2000/svg">
<path d="M10.9912 32.75C10.1983 32.7453 9.42831 32.483 8.79747 32.0025L5.43372 29.5C4.65747 28.8948 4.14242 28.0153 3.99434 27.0422C3.84626 26.0691 4.07639 25.0762 4.63747 24.2675C4.93433 23.8291 5.123 23.3266 5.18797 22.8012C5.25294 22.2758 5.19237 21.7425 5.01122 21.245L4.91372 20.985C4.78758 20.5347 4.55704 20.1205 4.24082 19.7761C3.92459 19.4316 3.53158 19.1666 3.09372 19.0025H2.83372C1.88451 18.6833 1.09953 18.0026 0.649242 17.1081C0.198954 16.2136 0.119709 15.1776 0.428715 14.225L1.76122 10C1.88388 9.51049 2.10971 9.05283 2.42359 8.65768C2.73747 8.26253 3.13216 7.93899 3.58122 7.70875C3.99941 7.49328 4.45698 7.3649 4.92622 7.33138C5.39547 7.29786 5.86664 7.3599 6.31122 7.51375C6.79528 7.67666 7.3118 7.71889 7.81589 7.63676C8.31999 7.55463 8.7964 7.35063 9.20372 7.0425L9.41497 6.88C9.78367 6.5858 10.0817 6.21261 10.287 5.78794C10.4923 5.36327 10.5997 4.89794 10.6012 4.42625V4.03625C10.5968 3.04196 10.9854 2.08621 11.6824 1.37707C12.3794 0.667937 13.3283 0.262848 14.3225 0.25H18.4662C18.9499 0.251304 19.4286 0.348157 19.8748 0.534998C20.321 0.721838 20.7259 0.994985 21.0662 1.33875C21.7817 2.06641 22.1791 3.04829 22.1712 4.06875V4.52375C22.163 4.97185 22.2601 5.41561 22.4549 5.81925C22.6497 6.22289 22.9366 6.57511 23.2925 6.8475L23.4712 6.9775C23.8359 7.25099 24.2614 7.43224 24.7112 7.50581C25.1611 7.57938 25.6221 7.54307 26.055 7.4L26.6075 7.22125C27.0756 7.06608 27.5701 7.00678 28.0617 7.04688C28.5532 7.08698 29.0316 7.22567 29.4683 7.45467C29.9051 7.68366 30.2913 7.99828 30.6038 8.37975C30.9163 8.76122 31.1489 9.20173 31.2875 9.675L32.5712 13.77C32.8683 14.7164 32.7871 15.7411 32.3447 16.6288C31.9023 17.5166 31.1331 18.1985 30.1987 18.5312L29.8737 18.645C29.3957 18.8015 28.9635 19.0731 28.6149 19.4357C28.2664 19.7984 28.0123 20.2411 27.875 20.725C27.7456 21.1748 27.715 21.6473 27.7851 22.11C27.8552 22.5728 28.0244 23.0149 28.2812 23.4062L28.7037 24.0237C29.264 24.837 29.492 25.8337 29.3409 26.8097C29.1899 27.7856 28.6712 28.6667 27.8912 29.2725L24.625 31.7912C24.2304 32.093 23.7782 32.3108 23.2962 32.4313C22.8143 32.5517 22.3128 32.5722 21.8226 32.4915C21.3324 32.4109 20.8639 32.2307 20.446 31.9621C20.0281 31.6936 19.6695 31.3423 19.3925 30.93L19.1975 30.6537C18.9313 30.2538 18.5682 29.9278 18.1419 29.7061C17.7157 29.4845 17.2402 29.3744 16.76 29.3863C16.3017 29.3981 15.8526 29.5175 15.4489 29.7349C15.0453 29.9522 14.6984 30.2614 14.4362 30.6375L14.0625 31.1738C13.7853 31.589 13.4261 31.943 13.0068 32.2141C12.5876 32.4852 12.1173 32.6676 11.625 32.75C11.4142 32.7706 11.202 32.7706 10.9912 32.75ZM4.14997 15.8825C5.06759 16.2097 5.89558 16.7478 6.56731 17.4534C7.23905 18.159 7.73575 19.0124 8.01747 19.945V20.14C8.36836 21.1095 8.48357 22.1486 8.3536 23.1715C8.22363 24.1943 7.85219 25.1716 7.26997 26.0225C7.1672 26.136 7.11029 26.2837 7.11029 26.4369C7.11029 26.59 7.1672 26.7377 7.26997 26.8513L10.7637 29.5C10.8093 29.5358 10.862 29.5614 10.9183 29.5752C10.9746 29.5889 11.0332 29.5905 11.0902 29.5797C11.1471 29.5689 11.2011 29.5461 11.2485 29.5127C11.2959 29.4793 11.3356 29.4362 11.365 29.3863L11.7387 28.85C12.3024 28.0355 13.0552 27.3698 13.9326 26.9101C14.8099 26.4503 15.7857 26.2101 16.7762 26.2101C17.7668 26.2101 18.7425 26.4503 19.6199 26.9101C20.4972 27.3698 21.25 28.0355 21.8137 28.85L22.0087 29.1425C22.0786 29.2416 22.1829 29.3111 22.3012 29.3375C22.3555 29.3455 22.4108 29.3424 22.4639 29.3285C22.517 29.3145 22.5667 29.2899 22.61 29.2563L25.9575 26.7213C26.0746 26.6282 26.1517 26.4939 26.1729 26.3458C26.1941 26.1977 26.1577 26.0471 26.0712 25.925L25.6487 25.3075C25.0982 24.5048 24.735 23.5886 24.5859 22.6267C24.4369 21.6648 24.5057 20.6817 24.7875 19.75C25.073 18.7707 25.5896 17.8744 26.2938 17.1363C26.9979 16.3982 27.869 15.8401 28.8337 15.5088L29.1587 15.395C29.2942 15.3407 29.4027 15.2351 29.4605 15.1012C29.5183 14.9672 29.5208 14.8158 29.4675 14.68L28.2 10.6338C28.1695 10.563 28.125 10.4991 28.0692 10.446C28.0133 10.3929 27.9472 10.3518 27.875 10.325C27.8271 10.3007 27.7742 10.2881 27.7206 10.2881C27.6669 10.2881 27.6141 10.3007 27.5662 10.325L27.0137 10.5038C26.0791 10.8122 25.0835 10.8891 24.1127 10.7277C23.1418 10.5664 22.2246 10.1717 21.44 9.5775L21.375 9.43125C20.6221 8.86107 20.0116 8.12412 19.5915 7.27827C19.1714 6.43241 18.9531 5.50069 18.9537 4.55625V4.0525C18.9567 3.89588 18.8984 3.74429 18.7912 3.63C18.6977 3.54551 18.576 3.49913 18.45 3.5H14.3225C14.2563 3.50413 14.1915 3.5213 14.132 3.55051C14.0724 3.57973 14.0192 3.62041 13.9755 3.67024C13.9317 3.72006 13.8982 3.77804 13.8768 3.84085C13.8555 3.90366 13.8468 3.97007 13.8512 4.03625V4.4425C13.8513 5.41269 13.6287 6.36995 13.2004 7.24051C12.7722 8.11107 12.1498 8.87169 11.3812 9.46375L11.17 9.62625C10.3408 10.2576 9.36902 10.6752 8.34035 10.8424C7.31167 11.0096 6.25766 10.9212 5.27122 10.585C5.19741 10.5602 5.11753 10.5602 5.04372 10.585C4.95201 10.6407 4.88294 10.727 4.84872 10.8288L3.49997 15.07C3.45295 15.2144 3.46397 15.3715 3.53069 15.508C3.59741 15.6445 3.7146 15.7496 3.85746 15.8012L4.14997 15.8825Z" fill="black"/>
<path d="M16.5 22.1875C15.3751 22.1875 14.2755 21.8539 13.3402 21.229C12.4049 20.604 11.6759 19.7158 11.2454 18.6765C10.815 17.6373 10.7023 16.4937 10.9218 15.3904C11.1412 14.2872 11.6829 13.2737 12.4783 12.4783C13.2737 11.6829 14.2872 11.1412 15.3904 10.9218C16.4937 10.7023 17.6373 10.815 18.6765 11.2454C19.7158 11.6759 20.604 12.4049 21.229 13.3402C21.8539 14.2755 22.1875 15.3751 22.1875 16.5C22.1875 18.0084 21.5883 19.4551 20.5217 20.5217C19.4551 21.5883 18.0084 22.1875 16.5 22.1875V22.1875ZM16.5 14.0625C16.0179 14.0625 15.5466 14.2055 15.1458 14.4733C14.745 14.7411 14.4325 15.1218 14.248 15.5672C14.0636 16.0126 14.0153 16.5027 14.1093 16.9755C14.2034 17.4484 14.4355 17.8827 14.7764 18.2236C15.1173 18.5645 15.5516 18.7966 16.0245 18.8907C16.4973 18.9847 16.9874 18.9364 17.4328 18.752C17.8782 18.5675 18.2589 18.255 18.5267 17.8542C18.7945 17.4534 18.9375 16.9821 18.9375 16.5C18.9375 15.8535 18.6807 15.2335 18.2236 14.7764C17.7665 14.3193 17.1465 14.0625 16.5 14.0625Z" fill="black"/>
</svg>
