<svg xmlns="http://www.w3.org/2000/svg" version="1.1" width="512" height="512" x="0" y="0" viewBox="0 0 511.998 511.998" style="enable-background:new 0 0 512 512" xml:space="preserve">
<path xmlns="http://www.w3.org/2000/svg" style="" d="M431.333,504.495H80.663c-8.796,0-15.781-7.397-15.278-16.179l17.953-313.061  c0.464-8.098,7.167-14.427,15.278-14.427H413.38c8.111,0,14.813,6.329,15.278,14.427l17.953,313.061  C447.114,497.097,440.129,504.495,431.333,504.495z" fill="#fc502a" data-original="#fc502a" class=""></path>
	<path style="" d="M446.611,488.316l-17.953-313.06c-0.464-8.098-7.167-14.427-15.278-14.427h-39.755l19.708,343.666   h38C440.129,504.495,447.114,497.097,446.611,488.316z" fill="#e60d28" data-original="#e60d28"></path>
    <circle style="" cx="135.548" cy="205.6" r="20.782" fill="#e60d28" data-original="#e60d28"></circle>
    <circle style="" cx="376.448" cy="205.6" r="20.782" fill="#e60d28" data-original="#e60d28"></circle>
<path xmlns="http://www.w3.org/2000/svg" d="M135.545,226.382c0.027,0,0.053,0,0.079,0c4.135-0.016,7.426-3.499,7.426-7.634v-89.454  c0-63.386,51.602-115.389,114.978-114.266c61.346,1.087,110.917,51.328,110.917,112.929v90.79c0,4.135,3.29,7.618,7.426,7.634  c0.026,0,0.053,0,0.079,0c0.027,0,0.053,0,0.079,0c4.135-0.016,7.426-3.499,7.426-7.634v-89.284  c0-71.805-58.456-130.711-130.25-129.443c-69.503,1.227-125.667,58.147-125.667,127.938v90.79c0,4.136,3.29,7.619,7.426,7.634  C135.492,226.382,135.519,226.382,135.545,226.382z" fill="#000000" data-original="#000000" class=""></path>
	<path style="" d="M171.608,363.6c0-20.295-37.264-12.383-37.264-39.902c0-16.97,14.218-22.015,26.486-22.015   c7.453,0,20.868,1.949,20.868,8.256c0,2.293-1.605,6.535-5.045,6.535c-3.096,0-6.077-4.357-15.823-4.357   c-8.37,0-14.333,3.21-14.333,10.434c0,16.97,37.265,9.287,37.265,39.787c0,16.397-11.007,24.423-26.143,24.423   c-14.906,0-25.34-7.797-25.34-13.53c0-2.752,2.408-6.536,5.274-6.536c4.128,0,6.88,9.058,19.607,9.058   C165.417,375.754,171.608,371.855,171.608,363.6z" fill="#ffffff" data-original="#ffffff"></path>
    <path style="" d="M235.932,347.203h-28.55v34.627c0,2.637-2.981,4.013-6.077,4.013c-2.981,0-6.077-1.376-6.077-4.013   v-75.905c0-2.752,3.096-3.899,6.077-3.899c3.096,0,6.077,1.147,6.077,3.899v31.646h28.55v-31.646c0-2.752,3.096-3.899,6.077-3.899   c3.096,0,6.077,1.147,6.077,3.899v75.905c0,2.637-2.981,4.013-6.077,4.013c-2.981,0-6.077-1.376-6.077-4.013V347.203z" fill="#ffffff" data-original="#ffffff"></path>
    <path style="" d="M262.419,360.963v-33.366c0-18.575,11.122-25.57,25.684-25.57c14.447,0,25.798,6.994,25.798,25.57   v33.366c0,18.575-11.351,25.569-25.798,25.569C273.54,386.532,262.419,379.538,262.419,360.963z M301.747,327.597   c0-10.09-5.16-14.791-13.645-14.791c-8.6,0-13.53,4.701-13.53,14.791v33.366c0,10.09,4.93,14.791,13.53,14.791   c8.485,0,13.645-4.701,13.645-14.791V327.597z" fill="#ffffff" data-original="#ffffff"></path>
    <path style="" d="M328.118,305.926c0-2.064,1.835-3.899,4.701-3.899h22.359c14.103,0,25.111,6.765,25.111,25.226   v0.917c0,18.346-11.351,25.34-25.799,25.34h-14.218v28.321c0,2.637-2.981,4.013-6.077,4.013c-2.981,0-6.077-1.376-6.077-4.013   V305.926z M340.273,312.805v31.073h14.218c8.485,0,13.645-4.816,13.645-14.906v-1.375c0-10.09-5.159-14.791-13.645-14.791   L340.273,312.805L340.273,312.805z" fill="#ffffff" data-original="#ffffff"></path>
<path xmlns="http://www.w3.org/2000/svg" d="M155.585,160.829L155.585,160.829c0,4.145,3.36,7.505,7.505,7.505h185.816c4.145,0,7.505-3.36,7.505-7.505l0,0  c0-4.145-3.36-7.505-7.505-7.505H163.09C158.945,153.323,155.585,156.684,155.585,160.829z" fill="#000000" data-original="#000000" class=""></path>
<path xmlns="http://www.w3.org/2000/svg" d="M454.104,487.886l-17.953-313.061c-0.692-12.057-10.694-21.502-22.771-21.502h-9.384c-4.145,0-7.505,3.36-7.505,7.505l0,0  c0,4.145,3.36,7.505,7.505,7.505h9.384c4.129,0,7.548,3.229,7.785,7.35l17.938,312.797c0.119,2.072-0.471,4.162-1.814,5.744  c-1.51,1.778-3.645,2.764-5.955,2.764H80.927c-2.075,0-4.129-0.709-5.631-2.142c-1.688-1.61-2.549-3.797-2.416-6.103l17.953-313.06  c0.237-4.122,3.656-7.351,7.785-7.351h9.384c4.145,0,7.505-3.36,7.505-7.505l0,0c0-4.145-3.36-7.505-7.505-7.505h-9.384  c-12.077,0-22.079,9.445-22.771,21.502l-17.953,313.06c-0.358,6.239,1.897,12.422,6.188,16.965  c4.29,4.543,10.335,7.149,16.583,7.149h350.67c6.249,0,12.293-2.606,16.583-7.149C452.206,500.308,454.461,494.124,454.104,487.886z" fill="#000000" data-original="#000000"/></svg>
