<svg width="27" height="35" viewBox="0 0 27 35" fill="none" xmlns="http://www.w3.org/2000/svg">
<path d="M13.5 15.625C14.9834 15.625 16.4334 15.1851 17.6668 14.361C18.9001 13.5369 19.8614 12.3656 20.4291 10.9951C20.9968 9.62468 21.1453 8.11668 20.8559 6.66183C20.5665 5.20697 19.8522 3.8706 18.8033 2.8217C17.7544 1.77281 16.418 1.0585 14.9632 0.769114C13.5083 0.479725 12.0003 0.62825 10.6299 1.19591C9.25943 1.76356 8.08809 2.72486 7.26398 3.95823C6.43987 5.19159 6 6.64164 6 8.125C6 10.1141 6.79018 12.0218 8.1967 13.4283C9.60322 14.8348 11.5109 15.625 13.5 15.625ZM13.5 4.375C14.2417 4.375 14.9667 4.59494 15.5834 5.00699C16.2001 5.41905 16.6807 6.00472 16.9645 6.68994C17.2484 7.37516 17.3226 8.12916 17.1779 8.85659C17.0333 9.58402 16.6761 10.2522 16.1516 10.7767C15.6272 11.3011 14.959 11.6583 14.2316 11.8029C13.5042 11.9476 12.7502 11.8734 12.0649 11.5896C11.3797 11.3057 10.794 10.8251 10.382 10.2084C9.96993 9.59171 9.75 8.86668 9.75 8.125C9.75 7.13044 10.1451 6.17661 10.8484 5.47335C11.5516 4.77009 12.5054 4.375 13.5 4.375Z" fill="black"/>
<path d="M13.5 19.375C10.019 19.375 6.68064 20.7578 4.21922 23.2192C1.75781 25.6806 0.375 29.019 0.375 32.5C0.375 32.9973 0.572544 33.4742 0.924175 33.8258C1.27581 34.1775 1.75272 34.375 2.25 34.375C2.74728 34.375 3.22419 34.1775 3.57582 33.8258C3.92746 33.4742 4.125 32.9973 4.125 32.5C4.125 30.0136 5.11272 27.629 6.87087 25.8709C8.62903 24.1127 11.0136 23.125 13.5 23.125C15.9864 23.125 18.371 24.1127 20.1291 25.8709C21.8873 27.629 22.875 30.0136 22.875 32.5C22.875 32.9973 23.0725 33.4742 23.4242 33.8258C23.7758 34.1775 24.2527 34.375 24.75 34.375C25.2473 34.375 25.7242 34.1775 26.0758 33.8258C26.4275 33.4742 26.625 32.9973 26.625 32.5C26.625 29.019 25.2422 25.6806 22.7808 23.2192C20.3194 20.7578 16.981 19.375 13.5 19.375V19.375Z" fill="black"/>
</svg>
